<?xml version="1.0" standalone="no"?>
<!DOCTYPE svg PUBLIC "-//W3C//DTD SVG 20010904//EN"
 "http://www.w3.org/TR/2001/REC-SVG-20010904/DTD/svg10.dtd">
<svg version="1.0" xmlns="http://www.w3.org/2000/svg"
 width="88.000000pt" height="88.000000pt" viewBox="0 0 88.000000 88.000000"
 preserveAspectRatio="xMidYMid meet">
<metadata>
Created by potrace 1.14, written by Peter Selinger 2001-2017
</metadata>
<g transform="translate(0.000000,88.000000) scale(0.100000,-0.100000)"
fill="#000000" stroke="none">
<path d="M0 440 l0 -440 440 0 440 0 0 440 0 440 -440 0 -440 0 0 -440z m530
272 c30 -9 61 -16 68 -15 7 0 11 -1 8 -4 -3 -3 6 -19 19 -35 14 -16 25 -38 25
-49 0 -10 6 -19 14 -19 20 0 26 -23 25 -88 0 -51 -2 -54 -12 -32 -6 14 -16 28
-22 32 -6 5 -3 8 8 8 20 0 24 40 5 41 -10 0 -10 2 0 6 13 5 7 23 -9 23 -5 0
-9 -13 -9 -29 0 -17 -5 -33 -10 -36 -6 -4 -8 -10 -6 -14 3 -4 0 -8 -7 -9 -7 0
-30 -3 -52 -6 -37 -5 -37 -5 -7 3 57 15 75 39 69 93 -8 64 -22 88 -58 95 -16
3 -29 9 -29 14 0 13 -70 27 -112 23 -21 -2 -38 1 -38 6 0 5 -8 11 -17 13 -10
2 7 2 37 0 30 -3 80 -12 110 -21z m-171 -6 c-45 -14 -88 -41 -117 -75 -20 -22
-22 -23 -12 -4 19 41 101 92 145 91 12 0 5 -5 -16 -12z m-129 -40 c0 -3 -4 -8
-10 -11 -5 -3 -10 -1 -10 4 0 6 5 11 10 11 6 0 10 -2 10 -4z m140 -36 c0 -5
-5 -10 -11 -10 -5 0 -7 5 -4 10 3 6 8 10 11 10 2 0 4 -4 4 -10z m160 0 c0 -5
-4 -10 -10 -10 -5 0 -10 5 -10 10 0 6 5 10 10 10 6 0 10 -4 10 -10z m160 -4
c0 -3 -4 -8 -10 -11 -5 -3 -10 -1 -10 4 0 6 5 11 10 11 6 0 10 -2 10 -4z
m-483 -84 c-8 -39 -8 -61 1 -85 11 -30 10 -31 -4 -12 -12 15 -14 34 -10 78 5
54 14 83 21 75 2 -2 -2 -27 -8 -56z m165 -55 c-3 -14 -1 -18 6 -13 7 4 12 13
12 21 0 7 6 15 14 18 10 4 8 -5 -7 -31 -19 -32 -22 -51 -21 -152 0 -69 -2 -96
-6 -68 -5 43 -32 88 -51 88 -4 0 -28 14 -53 30 -43 29 -44 32 -28 49 9 10 25
32 34 49 10 20 25 32 37 32 11 0 23 4 26 10 11 17 43 -11 37 -33z m-112 29 c0
-3 -4 -8 -10 -11 -5 -3 -10 -1 -10 4 0 6 5 11 10 11 6 0 10 -2 10 -4z m191 -5
c-16 -10 -6 -31 15 -31 11 0 13 6 9 21 -5 16 -3 20 6 17 9 -3 13 -15 11 -31
-2 -15 1 -27 7 -27 6 0 11 9 11 20 0 11 4 20 9 20 11 0 2 -38 -11 -46 -5 -3
-15 0 -23 6 -12 10 -16 9 -21 -6 -4 -11 -16 -29 -28 -42 -17 -19 -21 -38 -22
-95 -1 -40 3 -78 9 -85 7 -9 6 -11 -8 -6 -14 6 -16 18 -14 88 2 45 0 87 -4 94
-8 12 3 16 30 13 13 -2 30 46 20 56 -3 3 -14 -2 -23 -11 -9 -9 -18 -15 -21
-12 -7 7 39 66 51 66 6 0 5 -4 -3 -9z m179 -41 c0 -5 -4 -10 -10 -10 -5 0 -10
5 -10 10 0 6 5 10 10 10 6 0 10 -4 10 -10z m123 -23 c4 3 7 1 7 -5 0 -17 -16
-15 -31 6 -12 15 -12 16 2 5 9 -7 19 -10 22 -6z m-583 -7 c0 -5 -5 -10 -11
-10 -5 0 -7 5 -4 10 3 6 8 10 11 10 2 0 4 -4 4 -10z m470 -22 c0 -5 5 -6 10
-3 6 4 7 12 3 18 -4 7 0 6 10 -2 10 -8 16 -25 14 -45 -2 -25 1 -30 16 -28 14
3 18 -2 15 -20 -2 -15 -11 -24 -25 -26 -15 -2 -23 -10 -23 -24 0 -17 -2 -18
-15 -8 -9 7 -13 20 -10 29 2 9 -2 29 -10 45 -20 38 -20 87 0 80 8 -4 15 -10
15 -16z m-110 -12 c0 -3 -4 -8 -10 -11 -5 -3 -10 -1 -10 4 0 6 5 11 10 11 6 0
10 -2 10 -4z m210 -16 c0 -5 -8 -10 -17 -10 -15 0 -16 2 -3 10 19 12 20 12 20
0z m-475 -30 c-3 -5 -10 -10 -16 -10 -5 0 -9 5 -9 10 0 6 7 10 16 10 8 0 12
-4 9 -10z m225 6 c0 -3 -4 -8 -10 -11 -5 -3 -10 -1 -10 4 0 6 5 11 10 11 6 0
10 -2 10 -4z m-5 -105 c3 -5 1 -12 -5 -16 -5 -3 -10 1 -10 9 0 18 6 21 15 7z
m215 -20 c7 -14 7 -22 -1 -27 -12 -7 -29 12 -29 34 0 19 18 14 30 -7z m-435
-41 c3 -5 1 -10 -4 -10 -6 0 -11 5 -11 10 0 6 2 10 4 10 3 0 8 -4 11 -10z
m100 -30 c-9 -41 -17 -33 -9 9 4 17 9 30 11 27 3 -2 2 -19 -2 -36z m38 15 c-7
-21 -13 -19 -13 6 0 11 4 18 10 14 5 -3 7 -12 3 -20z m314 -20 c0 -8 -4 -12
-9 -9 -5 3 -6 10 -3 15 9 13 12 11 12 -6z m-318 -36 c-5 -3 -15 -14 -23 -25
-13 -17 -13 -15 -3 17 8 27 14 33 23 25 6 -6 8 -14 3 -17z m-49 -14 c0 -8 -3
-16 -7 -18 -5 -3 -8 5 -8 18 0 13 3 21 8 18 4 -2 7 -10 7 -18z"/>
<path d="M285 483 c-4 -10 -11 -33 -15 -51 -7 -27 -4 -35 13 -47 12 -8 33 -15
48 -15 24 0 27 5 32 45 4 29 2 53 -6 65 -15 25 -62 27 -72 3z"/>
</g>
</svg>
